<?xml version="1.0" encoding="utf-8"?>
<!-- Generator: Adobe Illustrator 17.1.0, SVG Export Plug-In . SVG Version: 6.00 Build 0)  -->
<!DOCTYPE svg PUBLIC "-//W3C//DTD SVG 1.1//EN" "http://www.w3.org/Graphics/SVG/1.1/DTD/svg11.dtd">
<svg version="1.1" id="Layer_1" xmlns="http://www.w3.org/2000/svg" xmlns:xlink="http://www.w3.org/1999/xlink" x="0px" y="0px"
	 viewBox="0 0 195.5 21.3" enable-background="new 0 0 195.5 21.3" xml:space="preserve">
<g transform="translate(0.000000,174.000000) scale(0.100000,-0.100000)">
	<path d="M1037.8,1717.9c-29.4-8.1-52.5-33.5-59.2-65.1c-9-43.1,9.3-87.1,43.4-104c28.2-13.9,62-11.8,87.7,5.7
		c22.6,15.3,36,43.5,36,75.8c0,43.2-24.3,77.8-61.7,87.6C1072.8,1720.7,1048.1,1720.7,1037.8,1717.9z M1080.2,1704.1
		c18.8-5.7,32.4-17.4,40.8-35c13-27,10.8-64.3-5.1-87.4c-13.8-20-38.3-30.2-64.8-27c-27.1,3.3-49.6,24.6-56.3,53.9
		c-2.6,11-2.6,32.5,0,43.4c4.2,18,16.7,36.6,30.4,45.1C1039,1705.7,1064.6,1708.9,1080.2,1704.1z"/>
	<path d="M20,1712.9c0-5.6,1.9-7.6,34.4-40.3l34.6-34.6H62.2H35.5v16.3v16.3h-7.7H20v-63.5v-63.5l55-0.3c30.2-0.3,55,0,55.2,0.8
		c0,0.6,0.2,3.7,0.3,7v5.7l-47.4,0.5l-47.6,0.3v32.5v32.5l47.6,0.3l47.4,0.5v7v7l-9.9,0.5l-9.9,0.5l-32.2,32.1l-32.1,32.1l42,0.8
		l42.2,0.8v7v7l-55.2,0.5l-55.3,0.3V1712.9z"/>
	<path d="M216.4,1717.6c-0.6-0.5-1.1-40-1.1-87.6v-86.5h50.5h50.4l-0.5,6.7l-0.5,6.5l-42.2,0.5l-42.3,0.3v80.6v80.6h-6.7
		C220.4,1718.7,216.8,1718.2,216.4,1717.6z"/>
	<path d="M473.8,1649.4c-0.5-68.2-0.5-69.6-3.9-75.8c-6.8-12.7-18.4-19.4-33.6-19.4c-11.8,0-19.4,3.1-28.7,11.8l-7.3,6.8l-4.2-5.3
		c-2.3-2.9-4.2-5.9-4.2-6.7c0-2.3,11.6-12.2,18.3-15.7c13.8-7,35-7.4,50.7-0.8c7.3,2.9,18.9,13.8,22.5,20.8
		c5.6,11,6.4,21.7,5.9,88.3l-0.5,64.3l-7.3,0.5l-7.3,0.5L473.8,1649.4z"/>
	<path d="M575.9,1717.6c-0.6-0.5-1.1-40-1.1-87.6v-86.5h55h55v7v7h-47.3h-47.3v34.1v34.1h46.5h46.5v7v7h-46.5h-46.5v31.8v31.8h47.3
		h47.3v7.7v7.7h-53.9C601.2,1718.7,576.4,1718.2,575.9,1717.6z"/>
	<path d="M771.3,1717.8c-0.8-0.6-1.2-40.1-1.2-87.7v-86.5h7.7h7.7v35.6v35.6h19.2h19.4l21.4-32.1c28.4-42.3,25.7-39.5,36.3-38.9
		l8.5,0.5l-24.5,35.6l-24.5,35.5l8.5,2c23.1,5.3,36.9,20.9,39.1,44.5c2,22.8-10.7,44.2-31.3,52.2c-8.5,3.3-12.2,3.6-47.3,4.2
		C789.5,1718.7,772,1718.4,771.3,1717.8z M853.9,1698.8c11-5.7,17.2-15.3,18.1-28.4c0.9-13.2-2-22.5-9.9-30.4
		c-9.6-9.6-17.2-11.3-49.7-11.3h-26.8v37.2v37.2h30.1C845.6,1703.2,845.7,1703.2,853.9,1698.8z"/>
	<path d="M1317.5,1712.5c0.5-5.6,2.8-8.4,34.4-40.3l33.8-34.1h-26.5h-26.5v16.3v16.3h-7.7h-7.7v-63.5v-63.5l55-0.3l55-0.5v7.4v7.3
		H1380h-47.3v32.5v32.5h47.3h47.3v7.7v7.7h-9.8h-9.6l-32.5,32.5l-32.5,32.5h42.3h42.2v7.7v7.7H1372h-55L1317.5,1712.5z"/>
	<path d="M1513.5,1717.8c-0.6-0.6-1.1-40.1-1.1-87.7v-86.5h50.5h50.4l-0.5,6.7l-0.5,6.5l-42.2,0.5l-42.3,0.3l-0.3,80.3l-0.5,80.1
		l-6.2,0.5C1517.4,1718.7,1514.2,1718.4,1513.5,1717.8z"/>
	<path d="M1698.4,1631.3v-87.4l7-0.6l7-0.5v87.9v88h-7h-7V1631.3z"/>
	<path d="M1851.4,1715.3c-1.4-2-13-29.8-25.9-61.7c-13-31.9-27.1-66.5-31.3-76.7c-4.3-10.2-9.1-21.9-10.7-25.9l-2.9-7.4h9.1h9
		l8.2,20.9l8.2,20.9h46.2h46l8.5-21.2l8.5-21.2l8.2,0.5c4.6,0.2,8.5,0.6,8.7,0.8c0.3,0.3-8.7,22.5-56.6,139.6l-13.9,34.1l-8.5,0.5
		C1854.7,1718.8,1853.3,1718.4,1851.4,1715.3z M1882.1,1649.7c10.1-24.6,18.6-46.2,18.9-47.6c0.8-2.6-1.9-2.8-39.7-2.8
		c-22.2,0-40.4,0.3-40.4,0.8c0,0.6,32.4,80.9,38.1,94.5c2.2,5.4,2.8,5.7,3.7,3.1C1863.3,1696.1,1872.2,1674.5,1882.1,1649.7z"/>
</g>
</svg>
